#!OML:ASF F:\VICON\USERDATA\INSTALL\Justin_Nancy\Justin_Nancy.ASF
:FULLY-SPECIFIED
:DEGREES
415
root 0.0472809 17.2337 33.964 2.63472 -2.14538 -2.36961
lowerback 5.33728 2.16764 0.524904
upperback 0.835429 2.96126 1.8925
thorax -2.2035 1.47833 1.43844
lowerneck -17.1069 -3.07825 -9.68412
upperneck 19.7644 -3.09541 6.37914
head 9.3026 -1.47656 3.41229
rclavicle 1.32192e-014 1.39149e-014
rhumerus -24.7171 -10.1316 -80.4807
rradius 35.9902
rwrist 2.74068
rhand -16.5849 11.5485
rfingers 7.12502
rthumb 9.63584 -18.2111
lclavicle 1.32192e-014 1.39149e-014
lhumerus -34.2645 21.3283 80.043
lradius 19.9138
lwrist -18.1323
lhand -11.7294 28.3402
lfingers 7.12502
lthumb 14.3177 417.826
rfemur 8.69531 5.48933 27.5844
rtibia 28.9029
rfoot -6.73898 -6.45555
rtoes -12.8129
lfemur -26.9178 -0.953225 -17.7336
ltibia 23.4638
lfoot 1.52013 0.423841
ltoes 3.56631
416
root 0.0760891 17.2679 34.1449 2.55775 -1.91218 -2.15583
lowerback 5.22918 2.05927 0.503562
upperback 0.764965 2.81378 1.81951
thorax -2.20954 1.40495 1.38865
lowerneck -16.973 -3.11348 -9.72184
upperneck 19.8197 -3.16681 6.4525
head 9.30542 -1.50748 3.43625
rclavicle 1.59028e-015 -2.38542e-015
rhumerus -25.0923 -10.7863 -80.3915
rradius 35.614
rwrist 3.04248
rhand -17.0569 11.7333
rfingers 7.12502
rthumb 9.18043 -18.0469
lclavicle 1.59028e-015 -2.38542e-015
lhumerus -34.3112 21.6202 79.8017
lradius 19.6669
lwrist -18.3781
lhand -11.4251 28.3505
lfingers 7.12502
lthumb 14.611 417.816
rfemur 7.75931 4.71677 27.0583
rtibia 31.2138
rfoot -4.9819 -5.89808
rtoes -11.5487
lfemur -26.3008 -0.362112 -18.353
ltibia 23.6323
lfoot 1.15527 -0.101025
ltoes 4.46049
417
root 0.0986288 17.2898 34.3122 2.57734 -1.80398 -1.93155
lowerback 5.08239 2.01361 0.37256
upperback 0.701095 2.74282 1.73358
thorax -2.1935 1.37061 1.38272
lowerneck -17.037 -3.1574 -9.57319
upperneck 19.8979 -3.24647 6.37172
head 9.34751 -1.54201 3.37351
rclavicle -3.29983e-014 -1.70955e-014
rhumerus -25.5281 -11.5135 -80.3088
rradius 35.5174
rwrist 3.13745
rhand -17.1551 11.3298
rfingers 7.12502
rthumb 9.08564 -18.4545
lclavicle -3.29983e-014 -1.70955e-014
lhumerus -34.3258 22.0328 79.5064
lradius 19.5335
lwrist -18.8813
lhand -11.6742 27.7403
lfingers 7.12502
lthumb 14.371 417.223
rfemur 6.68998 4.14188 26.5787
rtibia 33.4847
rfoot -2.99225 -5.43687
rtoes -10.1252
lfemur -25.8293 0.105383 -18.8783
ltibia 23.827
lfoot 0.49796 -0.721741
ltoes 4.95715
418
root 0.118456 17.3038 34.4729 2.51584 -1.72794 -1.63195
lowerback 5.02148 1.98054 0.108623
upperback 0.724627 2.68193 1.67433
thorax -2.14309 1.34214 1.4764
lowerneck -17.4095 -3.16933 -9.62011
upperneck 20.2493 -3.22932 6.388
head 9.53853 -1.53381 3.39455
rclavicle -5.01931e-015 1.11319e-014
rhumerus -25.8343 -12.1068 -80.1882
rradius 35.3716
rwrist 3.10314
rhand -17.093 10.834
rfingers 7.12502
rthumb 9.14561 -18.9477
lclavicle -5.01931e-015 1.11319e-014
lhumerus -34.2424 22.1026 79.5595
lradius 19.656
lwrist -18.6932
lhand -11.6741 28.2438
lfingers 7.12502
lthumb 14.371 417.726
rfemur 5.61 3.5918 26.0431
rtibia 35.7456
rfoot -0.94948 -5.1098
rtoes -8.46958
lfemur -25.2338 0.2153 -19.3796
ltibia 23.9593
lfoot -0.18759 -1.34502
ltoes 4.9974
419
root 0.13954 17.3271 34.638 2.26328 -1.79534 -1.655
lowerback 5.01047 1.95032 0.248071
upperback 0.884443 2.64567 1.65297
thorax -1.96431 1.32222 1.38274
lowerneck -17.262 -3.17661 -9.79524
upperneck 20.307 -3.26276 6.62017
head 9.54132 -1.5402 3.50316
rclavicle -4.33848e-014 -1.19271e-014
rhumerus -25.899 -12.7826 -80.1768
rradius 34.7858
rwrist 3.42689
rhand -17.3571 11.6459
rfingers 7.12502
rthumb 8.89071 -18.1468
lclavicle -4.33848e-014 -1.19271e-014
lhumerus -34.0732 21.4987 79.8858
lradius 20.0217
lwrist -17.7293
lhand -11.5406 29.2229
lfingers 7.12502
lthumb 14.4997 418.696
rfemur 4.59668 3.3058 25.8851
rtibia 37.9857
rfoot 1.38287 -4.85071
rtoes -5.07147
lfemur -24.3091 0.239588 -19.4491
ltibia 23.9513
lfoot -0.822319 -1.52973
ltoes 5.54916
420
root 0.166384 17.354 34.7978 2.10892 -1.86961 -1.44374
lowerback 5.18277 1.90445 0.248211
upperback 0.783572 2.58576 1.546
thorax -2.15794 1.29226 1.26875
lowerneck -16.7146 -3.10986 -9.91575
upperneck 20.2491 -3.21528 6.72714
head 9.41919 -1.52402 3.56788
rclavicle -7.85199e-015 -1.19271e-014
rhumerus -26.344 -13.2527 -80.1027
rradius 34.2538
rwrist 3.61134
rhand -17.3606 12.7601
rfingers 7.12502
rthumb 8.88738 -17.0327
lclavicle -7.85199e-015 -1.19271e-014
lhumerus -34.1456 21.0873 79.9291
lradius 20.172
lwrist -17.2437
lhand -11.0668 29.5784
lfingers 7.12502
lthumb 14.9562 419.018
rfemur 3.45758 2.9773 25.3908
rtibia 40.1558
rfoot 3.95407 -4.21012
rtoes -1.60704
lfemur -23.4342 0.289951 -19.8417
ltibia 23.7731
lfoot -1.28347 -1.21699
ltoes 5.7704
421
root 0.19379 17.3774 34.963 2.02506 -1.86137 -0.747977
lowerback 5.3148 1.84488 -0.284888
upperback 0.679885 2.47371 1.3415
thorax -2.34944 1.24071 1.35842
lowerneck -16.7548 -3.02094 -10.1185
upperneck 20.4375 -3.07074 6.86232
head 9.48427 -1.4593 3.6728
rclavicle 8.05078e-015 -9.54166e-015
rhumerus -26.7913 -13.4321 -80.0655
rradius 34.0534
rwrist 3.3941
rhand -17.1757 12.6525
rfingers 7.12502
rthumb 9.0658 -17.1327
lclavicle 8.05078e-015 -9.54166e-015
lhumerus -34.0454 21.0255 79.8951
lradius 20.1187
lwrist -17.2802
lhand -11.0516 29.068
lfingers 7.12502
lthumb 14.9708 418.507
rfemur 2.34023 2.55595 24.3273
rtibia 42.2687
rfoot 6.33958 -3.48135
rtoes 3.11721
lfemur -22.5263 0.386491 -20.8184
ltibia 23.4398
lfoot -1.70382 -1.12198
ltoes 6.07242
422
root 0.223067 17.4043 35.1348 1.86943 -1.82321 -0.26793
lowerback 5.43117 1.79847 -0.532582
upperback 0.6002 2.3935 1.15358
thorax -2.49641 1.20298 1.30458
lowerneck -17.5118 -2.92584 -10.3977
upperneck 21.6657 -2.90592 7.19555
head 10.0526 -1.37079 3.88957
rclavicle 2.56681e-014 7.15625e-015
rhumerus -27.1859 -13.8783 -79.9778
rradius 33.6424
rwrist 3.50921
rhand -16.9111 12.5093
rfingers 7.12502
rthumb 9.32115 -17.2646
lclavicle 2.56681e-014 7.15625e-015
lhumerus -33.9513 20.4594 80.0392
lradius 20.1096
lwrist -16.9664
lhand -12.1223 27.8653
lfingers 7.12502
lthumb 13.9392 417.378
rfemur 1.30854 2.17076 23.5283
rtibia 44.3507
rfoot 8.67464 -3.00324
rtoes 8.70393
lfemur -21.4645 0.366792 -21.5489
ltibia 22.9636
lfoot -2.02656 -1.2717
ltoes 6.01806
423
root 0.250366 17.4279 35.2962 1.67963 -1.88018 0.0339787
lowerback 5.40902 1.76564 -0.656148
upperback 0.630096 2.33971 1.05834
thorax -2.45266 1.17667 1.28125
lowerneck -17.1457 -3.02362 -9.92939
upperneck 21.2314 -3.04152 6.55827
head 9.82641 -1.46811 3.55238
rclavicle 2.68359e-014 -2.38542e-015
rhumerus -27.3807 -14.1872 -79.9137
rradius 33.1099
rwrist 3.7794
rhand -16.8883 12.4047
rfingers 7.12502
rthumb 9.34315 -17.3683
lclavicle 2.68359e-014 -2.38542e-015
lhumerus -33.766 19.4173 80.4919
lradius 20.1764
lwrist -15.8976
lhand -13.1673 27.2319
lfingers 7.12502
lthumb 12.9319 416.811
rfemur 0.263267 1.90521 22.9921
rtibia 46.4569
rfoot 10.8828 -2.92818
rtoes 14.3807
lfemur -20.3774 0.363335 -22.0311
ltibia 22.4582
lfoot -2.09382 -1.51091
ltoes 6.98404
